<svg xmlns="http://www.w3.org/2000/svg" width="60" height="60" viewBox="0 0 60 60"><g transform="translate(-273 -622)"><g transform="translate(280.714 622)"><path d="M260.863,238.578a4.107,4.107,0,0,1-4.1-4.1V221H235.785a6.452,6.452,0,0,0-6.445,6.446v47.109A6.452,6.452,0,0,0,235.785,281H268.6a6.452,6.452,0,0,0,6.445-6.446V238.578Zm-21.914,24.609h8.522a1.758,1.758,0,1,1,0,3.515h-8.522a1.758,1.758,0,1,1,0-3.515Zm-1.758-7.617a1.758,1.758,0,0,1,1.758-1.758h25.781a1.758,1.758,0,0,1,0,3.516H238.949A1.758,1.758,0,0,1,237.191,255.57Zm27.539-11.133a1.758,1.758,0,1,1,0,3.515H238.949a1.758,1.758,0,1,1,0-3.515Z" transform="translate(-229.34 -221)" fill="#30b0e6"/><path d="M265.434,234.6a.586.586,0,0,0,.585.585h13.4a6.423,6.423,0,0,0-1.233-1.609l-11.3-10.69a6.452,6.452,0,0,0-1.45-1.034V234.6Z" transform="translate(-234.496 -221.122)" fill="#30b0e6"/></g><rect width="60" height="60" transform="translate(273 622)" fill="none"/></g></svg>