<svg xmlns="http://www.w3.org/2000/svg" xmlns:xlink="http://www.w3.org/1999/xlink" width="60" height="60" viewBox="0 0 60 60"><defs><clipPath id="a"><rect width="60" height="60" transform="translate(154.02 154.02)" fill="none"/></clipPath></defs><g transform="translate(-154.021 -154.021)"><g clip-path="url(#a)"><path d="M172.471,180.751c2.747,6.064,8.63,8.7,11.549,8.7,1.92,0,5.121-1.142,7.869-3.647q-1.508.1-3.226.106c-.27,0-.552,0-.854-.008a3.345,3.345,0,0,1-2.039.7h-2.446a3.342,3.342,0,1,1,0-6.684h2.446a3.333,3.333,0,0,1,2.322.938q.306,0,.6,0a27.144,27.144,0,0,0,6.6-.639,3.645,3.645,0,0,1-.273-1.39v-8.474a3.643,3.643,0,0,1,.893-2.379,13.728,13.728,0,0,0-1.668-5.468c-1.685-2.727-4.934-4-10.224-4-4.388,0-7.419.911-9.264,2.785-1.431,1.453-2.26,3.526-2.647,6.656a3.64,3.64,0,0,1,.913,2.4v8.474A3.613,3.613,0,0,1,172.471,180.751Z" fill="#30b0e6"/><path d="M166.458,180.831h2.933a2,2,0,0,0,2-2v-8.474a2,2,0,0,0-1-1.728c.655-6.938,3.333-11.746,13.625-11.746,5.91,0,9.6,1.516,11.61,4.771a16.477,16.477,0,0,1,2,6.986,2,2,0,0,0-.978,1.717v8.474a2,2,0,0,0,1.558,1.949c-1.293.846-3.97,1.71-9.513,1.71q-.674,0-1.4-.018a1.712,1.712,0,0,0-1.519-.924h-2.445a1.712,1.712,0,0,0,0,3.424h2.445a1.709,1.709,0,0,0,1.387-.711c.515.013,1.019.021,1.506.021,6.248,0,10.22-1.066,11.829-3.183.068-.09.131-.179.188-.268h.9a2,2,0,0,0,2-2v-8.474a2,2,0,0,0-2-2h-1.1a18.731,18.731,0,0,0-2.414-8.208c-2.548-4.124-7.142-6.129-14.046-6.129s-11.5,2-14.046,6.129a18.744,18.744,0,0,0-2.413,8.208h-1.1a2,2,0,0,0-2,2v8.474A2,2,0,0,0,166.458,180.831Z" fill="#30b0e6"/><path d="M208.205,205.748c-.665-4.135-2.034-9.462-4.781-11.355-1.872-1.291-8.409-4.784-11.2-6.275l-.059-.032a.915.915,0,0,0-.994.087,11.86,11.86,0,0,1-4.765,2.3.913.913,0,0,0-.655.567l-1.73,4.559-1.729-4.559a.915.915,0,0,0-.655-.567,11.87,11.87,0,0,1-4.766-2.3.913.913,0,0,0-.994-.087c-2.76,1.475-9.382,5.041-11.252,6.3-3.162,2.13-4.543,9.837-4.788,11.36a.917.917,0,0,0,.041.45c.113.32,3.014,7.823,24.143,7.823s24.031-7.5,24.144-7.823A.918.918,0,0,0,208.205,205.748ZM198.367,201H190v-1.762h8.369Z" fill="#30b0e6"/></g></g></svg>