<?xml version="1.0" encoding="UTF-8"?>
<svg xmlns="http://www.w3.org/2000/svg" xmlns:xlink="http://www.w3.org/1999/xlink" width="299pt" height="69pt" viewBox="0 0 299 69" version="1.1">
<defs>
<clipPath id="clip1">
  <rect x="0" y="0" width="299" height="69"/>
</clipPath>
<g id="surface5" clip-path="url(#clip1)">
<path style=" stroke:none;fill-rule:nonzero;fill:rgb(7.843137%,53.333333%,80%);fill-opacity:1;" d="M 83.605469 46.691406 C 83.605469 48.414062 83.261719 49.796875 82.226562 50.601562 C 81.304688 51.519531 79.925781 51.980469 78.316406 51.980469 L 75.898438 51.980469 C 73.945312 51.980469 72.449219 51.636719 71.644531 50.945312 C 70.839844 50.253906 70.265625 49.105469 70.265625 47.148438 L 70.265625 33.464844 L 77.96875 33.464844 C 79.695312 33.464844 81.074219 33.808594 81.996094 34.84375 C 82.914062 35.878906 83.375 37.03125 83.375 38.640625 C 83.375 39.558594 83.144531 40.363281 82.683594 41.054688 C 82.226562 41.746094 81.765625 42.089844 81.074219 42.433594 C 82.800781 43.011719 83.605469 44.503906 83.605469 46.691406 Z M 77.855469 40.59375 C 79.234375 40.59375 79.808594 39.90625 79.808594 38.640625 C 79.808594 37.375 79.121094 36.683594 77.855469 36.683594 L 73.945312 36.683594 L 73.945312 40.710938 L 77.855469 40.710938 Z M 80.039062 46.34375 C 80.039062 45.539062 79.925781 44.851562 79.695312 44.503906 C 79.464844 44.160156 78.890625 43.816406 78.085938 43.816406 L 73.945312 43.816406 L 73.945312 46.804688 C 73.945312 47.496094 74.058594 47.953125 74.519531 48.300781 C 74.863281 48.53125 75.441406 48.644531 76.246094 48.644531 L 78.085938 48.644531 C 79.351562 48.644531 80.039062 47.953125 80.039062 46.34375 Z M 80.039062 46.34375 "/>
<path style=" stroke:none;fill-rule:nonzero;fill:rgb(7.843137%,53.333333%,80%);fill-opacity:1;" d="M 99.476562 51.863281 L 92.921875 51.863281 C 90.734375 51.863281 89.46875 51.519531 88.550781 50.828125 C 87.746094 50.140625 87.398438 48.875 87.398438 47.035156 L 87.398438 33.464844 L 99.589844 33.464844 L 99.589844 36.683594 L 91.078125 36.683594 L 91.078125 40.941406 L 97.058594 40.941406 L 96.828125 44.160156 L 91.078125 44.160156 L 91.078125 46.691406 C 91.078125 47.378906 91.195312 47.839844 91.65625 48.183594 C 92 48.414062 92.574219 48.53125 93.378906 48.53125 L 99.703125 48.53125 C 99.476562 48.53125 99.476562 51.863281 99.476562 51.863281 Z M 99.476562 51.863281 "/>
<path style=" stroke:none;fill-rule:nonzero;fill:rgb(7.843137%,53.333333%,80%);fill-opacity:1;" d="M 115.460938 46.460938 C 115.460938 48.183594 114.769531 49.566406 113.621094 50.601562 C 112.238281 51.519531 110.628906 52.09375 108.675781 52.09375 C 107.066406 52.09375 105.570312 51.75 104.074219 50.714844 C 103.386719 50.371094 102.695312 49.679688 102.351562 48.875 C 102.003906 48.070312 101.660156 47.148438 101.660156 46.113281 L 104.878906 46 C 104.878906 46.921875 105.226562 47.609375 106.03125 48.183594 C 106.835938 48.761719 107.753906 48.988281 108.675781 48.988281 C 110.859375 48.988281 111.894531 48.183594 111.894531 46.691406 C 111.894531 45.539062 111.203125 44.734375 109.710938 44.503906 L 106.605469 44.160156 C 105.109375 43.929688 103.960938 43.355469 103.039062 42.550781 C 102.121094 41.746094 101.660156 40.59375 101.660156 38.984375 C 101.660156 37.375 102.351562 35.996094 103.5 35.074219 C 104.648438 34.039062 106.261719 33.464844 108.328125 33.464844 C 110.398438 33.464844 111.78125 34.039062 113.046875 34.960938 C 114.195312 35.878906 114.769531 37.261719 114.769531 38.753906 L 111.550781 38.871094 C 111.320312 37.375 110.171875 36.570312 108.445312 36.570312 C 107.410156 36.570312 106.605469 36.800781 105.914062 37.261719 C 105.226562 37.605469 104.996094 38.179688 104.996094 38.871094 C 104.996094 39.558594 105.226562 39.90625 105.683594 40.363281 C 106.03125 40.710938 106.605469 40.941406 107.296875 41.054688 L 110.285156 41.285156 C 113.851562 41.515625 115.460938 43.355469 115.460938 46.460938 Z M 115.460938 46.460938 "/>
<path style=" stroke:none;fill-rule:nonzero;fill:rgb(7.843137%,53.333333%,80%);fill-opacity:1;" d="M 130.296875 36.570312 L 125.351562 36.570312 L 125.351562 51.75 L 121.785156 51.75 L 121.785156 36.570312 L 116.839844 36.570312 L 116.839844 33.351562 L 130.296875 33.351562 C 130.296875 33.464844 130.296875 36.570312 130.296875 36.570312 Z M 130.296875 36.570312 "/>
</g>
<clipPath id="clip2">
  <rect x="0" y="0" width="299" height="69"/>
</clipPath>
<g id="surface8" clip-path="url(#clip2)">
<path style=" stroke:none;fill-rule:nonzero;fill:rgb(16.862745%,19.607843%,69.803922%);fill-opacity:1;" d="M 145.246094 36.570312 L 138.804688 36.570312 C 138 36.570312 137.425781 36.683594 137.195312 36.914062 C 136.964844 37.144531 136.851562 37.71875 136.851562 38.410156 L 136.851562 41.054688 L 143.636719 41.054688 L 143.40625 44.273438 L 136.851562 44.273438 L 136.851562 51.75 L 133.285156 51.75 L 133.285156 37.144531 C 133.285156 35.765625 133.515625 34.84375 134.203125 34.15625 C 134.78125 33.578125 135.816406 33.351562 137.308594 33.351562 L 145.476562 33.351562 L 145.476562 36.570312 Z M 145.246094 36.570312 "/>
<path style=" stroke:none;fill-rule:nonzero;fill:rgb(16.862745%,19.607843%,69.803922%);fill-opacity:1;" d="M 159.734375 51.863281 L 154.214844 51.863281 C 152.03125 51.863281 150.648438 51.519531 149.613281 50.714844 C 148.695312 49.910156 148.234375 48.53125 148.234375 46.804688 L 148.234375 33.464844 L 151.800781 33.464844 L 151.800781 46.804688 C 151.800781 47.496094 151.914062 47.953125 152.375 48.300781 C 152.835938 48.644531 153.296875 48.644531 154.101562 48.644531 L 159.621094 48.644531 L 159.621094 51.863281 Z M 159.734375 51.863281 "/>
<path style=" stroke:none;fill-rule:nonzero;fill:rgb(16.862745%,19.607843%,69.803922%);fill-opacity:1;" d="M 166.175781 51.863281 L 162.609375 51.863281 L 162.609375 33.464844 L 166.175781 33.464844 Z M 166.175781 51.863281 "/>
<path style=" stroke:none;fill-rule:nonzero;fill:rgb(16.862745%,19.607843%,69.803922%);fill-opacity:1;" d="M 169.394531 43.125 L 169.394531 40.824219 C 169.394531 38.410156 170.085938 36.570312 171.234375 35.191406 C 172.386719 33.808594 174.226562 33.234375 176.410156 33.234375 C 178.710938 33.234375 180.433594 33.925781 181.699219 35.191406 C 182.621094 36.109375 183.195312 37.605469 183.195312 39.445312 L 179.859375 39.445312 C 179.859375 37.488281 178.824219 36.339844 176.523438 36.339844 C 175.835938 36.339844 175.375 36.453125 174.800781 36.683594 C 174.226562 36.914062 173.996094 37.261719 173.765625 37.488281 C 173.535156 37.71875 173.421875 38.296875 173.191406 38.984375 C 173.074219 39.675781 173.074219 40.136719 172.960938 40.59375 C 172.84375 41.054688 172.960938 41.628906 172.960938 42.320312 C 172.960938 43.011719 172.960938 43.46875 172.960938 43.816406 C 172.960938 44.046875 172.960938 44.503906 173.074219 44.964844 C 173.074219 45.539062 173.191406 45.886719 173.304688 46.113281 C 173.421875 46.34375 173.535156 46.691406 173.648438 47.035156 C 173.765625 47.378906 173.996094 47.726562 174.339844 47.839844 C 175.03125 48.183594 175.835938 48.53125 176.753906 48.53125 C 178.25 48.53125 179.285156 47.839844 179.976562 46.691406 L 179.976562 45.539062 L 177.675781 45.539062 L 177.675781 42.550781 L 182.964844 42.550781 L 182.964844 48.183594 C 182.390625 49.335938 181.585938 50.484375 180.433594 50.945312 C 179.285156 51.636719 178.019531 51.863281 176.523438 51.863281 C 173.878906 51.863281 171.925781 51.175781 170.890625 49.679688 C 169.96875 48.414062 169.394531 46.230469 169.394531 43.125 Z M 169.394531 43.125 "/>
<path style=" stroke:none;fill-rule:nonzero;fill:rgb(16.862745%,19.607843%,69.803922%);fill-opacity:1;" d="M 200.789062 51.863281 L 197.226562 51.863281 L 197.226562 44.390625 L 190.441406 44.390625 L 190.441406 51.863281 L 186.875 51.863281 L 186.875 33.464844 L 190.441406 33.464844 L 190.441406 41.171875 L 197.226562 41.171875 L 197.226562 33.464844 L 200.789062 33.464844 Z M 200.789062 51.863281 "/>
<path style=" stroke:none;fill-rule:nonzero;fill:rgb(16.862745%,19.607843%,69.803922%);fill-opacity:1;" d="M 216.890625 36.570312 L 211.945312 36.570312 L 211.945312 51.75 L 208.378906 51.75 L 208.378906 36.570312 L 203.433594 36.570312 L 203.433594 33.351562 L 216.890625 33.351562 Z M 216.890625 36.570312 "/>
<path style=" stroke:none;fill-rule:nonzero;fill:rgb(16.862745%,19.607843%,69.803922%);fill-opacity:1;" d="M 233.566406 42.664062 L 233.566406 44.621094 C 233.449219 45.769531 233.335938 46.921875 233.21875 47.839844 C 233.105469 48.761719 232.53125 49.449219 231.726562 50.253906 C 230.574219 51.40625 228.734375 51.980469 226.664062 51.980469 C 224.019531 51.980469 222.296875 51.636719 221.144531 50.945312 C 220.226562 50.253906 219.648438 48.988281 219.648438 47.148438 L 219.648438 33.351562 L 226.894531 33.351562 C 229.078125 33.351562 230.691406 33.925781 231.726562 35.074219 C 232.644531 35.996094 233.21875 37.261719 233.449219 38.523438 C 233.449219 39.675781 233.566406 41.054688 233.566406 42.664062 Z M 229.769531 46 C 229.886719 45.308594 229.886719 44.273438 229.886719 42.664062 C 229.886719 41.171875 229.886719 40.136719 229.769531 39.445312 C 229.65625 38.753906 229.539062 38.296875 229.078125 37.835938 C 228.390625 37.03125 227.585938 36.683594 226.433594 36.683594 L 223.214844 36.683594 L 223.214844 46.804688 C 223.214844 47.496094 223.445312 47.953125 223.90625 48.300781 C 224.25 48.53125 225.285156 48.644531 226.433594 48.644531 C 227.585938 48.644531 228.621094 48.300781 229.078125 47.496094 C 229.425781 47.148438 229.65625 46.691406 229.769531 46 Z M 229.769531 46 "/>
<path style=" stroke:none;fill-rule:nonzero;fill:rgb(16.862745%,19.607843%,69.803922%);fill-opacity:1;" d="M 248.859375 51.863281 L 242.304688 51.863281 C 240.121094 51.863281 238.855469 51.519531 237.933594 50.828125 C 237.015625 50.140625 236.785156 48.875 236.785156 47.035156 L 236.785156 33.464844 L 248.976562 33.464844 L 248.976562 36.683594 L 240.464844 36.683594 L 240.464844 40.941406 L 246.445312 40.941406 L 246.214844 44.160156 L 240.464844 44.160156 L 240.464844 46.691406 C 240.464844 47.378906 240.578125 47.839844 241.039062 48.183594 C 241.386719 48.414062 241.960938 48.53125 242.765625 48.53125 L 249.089844 48.53125 Z M 248.859375 51.863281 "/>
<path style=" stroke:none;fill-rule:nonzero;fill:rgb(16.862745%,19.607843%,69.803922%);fill-opacity:1;" d="M 266.339844 51.863281 L 262.546875 51.863281 L 261.511719 48.644531 L 255.300781 48.644531 L 254.265625 51.863281 L 250.46875 51.863281 L 256.335938 35.074219 C 256.566406 34.5 256.910156 34.15625 257.140625 33.925781 C 257.371094 33.695312 257.828125 33.578125 258.289062 33.578125 C 258.863281 33.578125 259.09375 33.695312 259.324219 33.808594 C 259.554688 34.039062 259.898438 34.5 260.128906 34.960938 Z M 260.703125 45.65625 L 258.519531 38.296875 L 256.21875 45.65625 Z M 260.703125 45.65625 "/>
<path style=" stroke:none;fill-rule:nonzero;fill:rgb(16.862745%,19.607843%,69.803922%);fill-opacity:1;" d="M 280.253906 51.863281 L 274.734375 51.863281 C 272.550781 51.863281 271.171875 51.519531 270.136719 50.714844 C 269.214844 49.910156 268.753906 48.53125 268.753906 46.804688 L 268.753906 33.464844 L 272.320312 33.464844 L 272.320312 46.804688 C 272.320312 47.496094 272.433594 47.953125 272.894531 48.300781 C 273.238281 48.53125 273.816406 48.644531 274.621094 48.644531 L 280.140625 48.644531 L 280.140625 51.863281 Z M 280.253906 51.863281 "/>
<path style=" stroke:none;fill-rule:nonzero;fill:rgb(16.862745%,19.607843%,69.803922%);fill-opacity:1;" d="M 295.550781 46.460938 C 295.550781 48.183594 294.859375 49.566406 293.710938 50.601562 C 292.328125 51.519531 290.71875 52.09375 288.765625 52.09375 C 287.15625 52.09375 285.660156 51.75 284.164062 50.714844 C 283.476562 50.371094 282.785156 49.679688 282.441406 48.875 C 282.09375 48.070312 281.75 47.148438 281.75 46.113281 L 284.96875 46 C 284.96875 46.921875 285.316406 47.609375 286.121094 48.183594 C 286.925781 48.761719 287.84375 48.988281 288.765625 48.988281 C 290.949219 48.988281 291.984375 48.183594 291.984375 46.691406 C 291.984375 45.539062 291.296875 44.734375 289.800781 44.503906 L 286.808594 44.273438 C 285.316406 44.046875 284.164062 43.46875 283.246094 42.664062 C 282.324219 41.859375 281.863281 40.710938 281.863281 39.101562 C 281.863281 37.488281 282.554688 36.109375 283.703125 35.191406 C 284.855469 34.15625 286.464844 33.578125 288.535156 33.578125 C 290.605469 33.578125 291.984375 34.15625 293.25 35.074219 C 294.398438 35.996094 294.976562 37.375 294.976562 38.871094 L 291.753906 38.984375 C 291.523438 37.488281 290.375 36.683594 288.648438 36.683594 C 287.613281 36.683594 286.808594 36.914062 286.121094 37.375 C 285.546875 37.71875 285.199219 38.296875 285.199219 38.984375 C 285.199219 39.675781 285.429688 40.019531 285.890625 40.480469 C 286.234375 40.824219 286.808594 41.054688 287.5 41.171875 L 290.488281 41.398438 C 293.941406 41.515625 295.550781 43.355469 295.550781 46.460938 Z M 295.550781 46.460938 "/>
</g>
</defs>
<g id="surface1">
<use xlink:href="#surface5"/>
<use xlink:href="#surface8"/>
<path style=" stroke:none;fill-rule:nonzero;fill:rgb(16.862745%,19.607843%,69.803922%);fill-opacity:1;" d="M 63.824219 41.515625 C 63.824219 41.515625 66.238281 40.136719 66.011719 36.683594 C 66.011719 35.996094 66.011719 35.304688 66.125 34.730469 L 59.226562 39.328125 L 61.871094 40.480469 Z M 63.824219 41.515625 "/>
<path style=" stroke:none;fill-rule:nonzero;fill:rgb(16.862745%,19.607843%,69.803922%);fill-opacity:1;" d="M 73.484375 25.414062 C 72.105469 25.761719 70.496094 26.449219 68.539062 27.371094 C 68.425781 27.371094 68.308594 27.484375 68.195312 27.601562 C 67.851562 27.828125 67.273438 27.945312 66.699219 28.289062 C 66.46875 28.40625 66.125 28.519531 65.894531 28.636719 C 65.894531 28.636719 63.941406 29.554688 61.296875 30.128906 C 59.570312 30.476562 57.5 30.703125 55.429688 30.359375 C 50.140625 29.671875 46.574219 26.910156 40.710938 31.511719 L 53.128906 37.144531 L 55.316406 35.996094 L 53.703125 37.375 C 53.589844 37.375 53.589844 37.488281 53.476562 37.605469 C 51.980469 38.753906 49.910156 40.363281 49.910156 40.363281 C 49.679688 40.59375 46.691406 42.664062 42.550781 41.976562 C 38.296875 41.171875 37.03125 43.011719 37.03125 43.011719 L 42.203125 45.308594 L 43.238281 45.886719 L 41.515625 45.539062 C 36.800781 47.378906 32.429688 48.070312 28.636719 47.953125 C 28.636719 47.953125 28.636719 47.953125 28.519531 47.953125 C 27.945312 47.953125 27.601562 47.953125 27.023438 47.839844 C 26.910156 47.839844 26.910156 47.839844 26.796875 47.839844 C 24.035156 47.609375 21.503906 46.804688 19.550781 45.65625 C 19.550781 45.65625 19.433594 45.65625 19.433594 45.539062 C 14.71875 43.125 10.121094 38.179688 10.121094 28.175781 C 10.121094 28.175781 11.269531 32.199219 13.914062 35.878906 C 13.914062 32.085938 14.605469 29.210938 14.605469 29.210938 C 15.296875 26.449219 16.445312 23.574219 17.824219 21.046875 C 19.433594 18.515625 21.273438 16.214844 23.691406 14.261719 C 28.75 10.003906 35.648438 7.359375 43.011719 7.703125 C 46.574219 7.933594 50.253906 8.855469 53.703125 10.351562 C 57.039062 12.074219 60.144531 14.375 62.675781 17.480469 C 64.285156 19.320312 65.320312 21.273438 66.46875 23.460938 L 67.273438 23.230469 C 66.46875 20.929688 65.320312 18.628906 64.054688 16.675781 C 61.871094 13.226562 58.996094 10.121094 55.660156 7.589844 C 52.324219 5.058594 48.300781 3.21875 44.046875 2.070312 C 39.90625 1.035156 35.304688 0.691406 30.820312 1.378906 C 26.21875 2.183594 21.964844 3.679688 17.941406 6.324219 C 15.523438 7.820312 13.226562 9.773438 11.386719 11.960938 L 11.269531 12.074219 C 0.230469 24.953125 2.761719 40.25 7.933594 46.34375 C 12.878906 52.324219 23.34375 52.09375 25.300781 51.980469 C 25.414062 51.980469 25.53125 51.980469 25.53125 51.980469 C 35.191406 51.289062 43.699219 46.804688 48.761719 43.585938 C 52.09375 41.746094 56.925781 38.984375 61.640625 36.683594 C 64.171875 35.191406 66.816406 33.925781 69 32.660156 C 69 32.660156 69.113281 32.660156 69.113281 32.546875 C 70.839844 31.625 72.21875 30.820312 73.371094 30.246094 C 74.75 29.554688 75.554688 29.210938 75.554688 29.09375 C 79.234375 27.371094 80.269531 23.113281 73.484375 25.414062 Z M 73.484375 25.414062 "/>
<path style=" stroke:none;fill-rule:nonzero;fill:rgb(7.843137%,53.333333%,80%);fill-opacity:1;" d="M 65.550781 45.078125 C 64.398438 44.390625 63.136719 43.699219 63.136719 43.699219 C 62.445312 43.355469 61.753906 43.011719 61.179688 42.894531 C 60.375 42.78125 59.453125 42.664062 58.648438 42.78125 C 57.730469 42.78125 56.925781 43.011719 56.234375 43.355469 C 55.546875 43.585938 54.625 44.160156 54.050781 44.734375 C 52.671875 45.769531 51.75 47.148438 51.289062 48.875 C 51.058594 49.566406 50.945312 50.253906 50.945312 51.058594 C 51.289062 51.058594 51.75 51.058594 51.980469 51.058594 C 53.015625 51.175781 53.933594 51.75 54.511719 52.441406 C 53.703125 51.863281 52.671875 51.636719 51.863281 51.636719 C 51.519531 51.636719 51.058594 51.636719 50.828125 51.75 C 50.714844 51.75 50.714844 51.75 50.601562 51.863281 C 50.253906 51.980469 49.796875 52.09375 49.449219 52.441406 C 48.644531 53.015625 47.953125 53.589844 47.609375 54.394531 C 47.609375 54.511719 47.496094 54.511719 47.496094 54.625 C 47.265625 55.429688 47.148438 56.234375 47.148438 57.039062 C 46.804688 56.121094 46.804688 55.085938 47.148438 54.28125 C 46.460938 53.703125 45.769531 53.359375 45.195312 52.898438 C 43.46875 52.210938 41.628906 52.210938 39.90625 53.015625 C 38.179688 53.820312 36.914062 55.316406 36.453125 57.039062 C 36.339844 57.613281 36.226562 58.074219 36.226562 58.765625 C 36.226562 58.996094 36.226562 59.109375 36.226562 59.453125 C 36.226562 60.488281 36.570312 61.640625 37.144531 62.675781 C 36.453125 61.871094 36.109375 60.949219 35.996094 60.144531 C 35.996094 59.914062 35.878906 59.800781 35.878906 59.453125 C 35.304688 59.453125 34.84375 59.453125 34.269531 59.453125 C 33.351562 59.570312 32.429688 59.800781 31.738281 60.375 C 32.316406 60.949219 32.546875 61.523438 32.773438 62.214844 C 32.546875 61.523438 31.96875 61.066406 31.394531 60.605469 C 31.28125 60.488281 31.164062 60.375 31.050781 60.375 C 30.703125 60.144531 30.359375 60.03125 30.015625 59.800781 C 28.863281 59.453125 27.601562 59.570312 26.566406 60.144531 C 25.53125 60.71875 24.726562 61.753906 24.378906 62.90625 C 24.265625 63.25 24.265625 63.710938 24.265625 64.285156 C 24.265625 64.171875 24.265625 64.171875 24.265625 64.054688 C 24.035156 61.871094 25.183594 60.605469 25.761719 60.144531 C 25.988281 60.03125 26.105469 59.800781 26.449219 59.570312 L 26.566406 59.570312 C 26.679688 59.570312 26.679688 59.339844 26.449219 59.339844 C 24.035156 59.570312 18.746094 59.914062 12.765625 57.84375 C 13.453125 58.535156 14.144531 59.226562 14.71875 59.800781 C 16.558594 61.523438 18.628906 62.789062 20.816406 63.941406 C 21.964844 64.628906 23.230469 65.320312 24.609375 65.664062 L 24.953125 65.78125 C 25.761719 66.011719 26.566406 66.355469 27.371094 66.585938 L 27.601562 66.699219 C 29.554688 67.273438 31.511719 67.621094 33.464844 67.851562 C 37.835938 68.195312 42.203125 67.851562 46.113281 66.46875 C 50.140625 65.320312 53.820312 63.25 57.039062 60.71875 C 60.949219 57.730469 63.941406 53.933594 66.125 49.796875 C 66.125 49.796875 66.125 49.679688 66.238281 49.679688 C 66.46875 49.105469 66.816406 48.644531 67.046875 48.070312 C 67.046875 48.070312 67.046875 47.953125 67.160156 47.953125 C 66.816406 46.691406 66.46875 45.539062 65.550781 45.078125 Z M 65.550781 45.078125 "/>
</g>
</svg>
