<svg xmlns="http://www.w3.org/2000/svg" xmlns:xlink="http://www.w3.org/1999/xlink" width="60" height="60" viewBox="0 0 60 60"><defs><clipPath id="a"><rect width="60" height="60" transform="translate(0 0)" fill="none"/></clipPath></defs><g transform="translate(-0.001 -0.001)"><g transform="translate(0.001 0.001)" clip-path="url(#a)"><g transform="translate(0 0.038)"><g transform="translate(0 16.568)"><path d="M21.431,156.887l4.348-2.288-4.348-2.289,2.621-4.156-4.91.192.192-4.91-4.156,2.621-2.289-4.348L10.6,146.057l-4.156-2.621.192,4.91-4.91-.192,2.621,4.156L0,154.6l4.348,2.289-2.621,4.156,4.91-.192-.192,4.91,4.156-2.621,2.289,4.348,2.289-4.348,4.156,2.621-.192-4.91,4.91.192Zm-8.541,4.156a6.445,6.445,0,1,1,6.445-6.445A6.445,6.445,0,0,1,12.889,161.043Z" transform="translate(0 -141.709)" fill="#30b0e6"/></g><g transform="translate(0 52.893)"><path d="M53.984,453.758a6.252,6.252,0,0,1-7.978,0,9.734,9.734,0,0,0-12.021,0,6.251,6.251,0,0,1-7.977,0A9.393,9.393,0,0,0,20,451.68a9.393,9.393,0,0,0-6.01,2.077A5.916,5.916,0,0,1,10,455.2a5.915,5.915,0,0,1-3.988-1.438A9.392,9.392,0,0,0,0,451.68V455.2a5.915,5.915,0,0,1,3.988,1.438A9.393,9.393,0,0,0,10,458.711a9.393,9.393,0,0,0,6.01-2.077A5.916,5.916,0,0,1,20,455.2a5.915,5.915,0,0,1,3.988,1.438,9.733,9.733,0,0,0,12.021,0,6.251,6.251,0,0,1,7.977,0,9.734,9.734,0,0,0,12.021,0,5.917,5.917,0,0,1,3.989-1.438V451.68A9.392,9.392,0,0,0,53.984,453.758Z" transform="translate(0 -451.68)" fill="#30b0e6"/></g><g transform="translate(4.972)"><path d="M95.635,13.128A19.188,19.188,0,0,0,86.35,3.806l.829-2.277-3.3-1.2-.829,2.278a19.36,19.36,0,0,0-23.1,12.081l-.71,1.95,2.04.379a30.25,30.25,0,0,1,9.367,3.409l.41.232.471,0H71.7a18.254,18.254,0,0,1,4.566.581l-8.191,22.5c-.207,0-.414-.006-.622-.006a48.371,48.371,0,0,0-25.025,6.927,15.429,15.429,0,0,1,3.06,1.766c1.028.723,1.135.8,1.967.8s.939-.076,1.966-.8a13.231,13.231,0,0,1,16.064,0c1.028.723,1.135.8,1.967.8s.939-.076,1.966-.8a13.232,13.232,0,0,1,16.065,0c1.028.723,1.135.8,1.967.8s.939-.076,1.967-.8a15.431,15.431,0,0,1,3.061-1.766A48.276,48.276,0,0,0,71.75,43.918l7.82-21.484a18.261,18.261,0,0,1,4.007,2.605l.358.306.463.086a30.252,30.252,0,0,1,9.367,3.409l1.807,1.02.71-1.95A19.208,19.208,0,0,0,95.635,13.128Z" transform="translate(-42.429 -0.327)" fill="#30b0e6"/></g></g></g></g></svg>